<?xml version="1.0" standalone="no"?>
<!DOCTYPE svg PUBLIC "-//W3C//DTD SVG 20010904//EN"
 "http://www.w3.org/TR/2001/REC-SVG-20010904/DTD/svg10.dtd">
<svg version="1.0" xmlns="http://www.w3.org/2000/svg"
 width="1280.000000pt" height="1132.000000pt" viewBox="0 0 1280.000000 1132.000000"
 preserveAspectRatio="xMidYMid meet">
<metadata>
Created by potrace 1.15, written by Peter Selinger 2001-2017
</metadata>
<g transform="translate(0.000000,1132.000000) scale(0.100000,-0.100000)"
fill="#880C0C" stroke="none">
<path d="M8720 11310 c-574 -59 -1067 -283 -1474 -670 -184 -174 -373 -407
-512 -629 -38 -60 -78 -114 -90 -122 -57 -35 -341 -239 -554 -398 -1041 -773
-1807 -1548 -2365 -2391 -498 -752 -833 -1555 -1080 -2590 -31 -129 -58 -241
-60 -247 -3 -9 -17 -7 -52 8 -68 30 -233 86 -322 110 -652 171 -1286 9 -1711
-437 -342 -360 -516 -840 -497 -1374 19 -502 159 -955 425 -1365 262 -405 612
-717 1037 -925 369 -181 715 -261 1125 -261 402 0 750 79 1105 250 526 254
945 670 1205 1196 206 415 292 818 277 1295 -24 757 -308 1287 -822 1536 -456
220 -1021 166 -1421 -137 -48 -36 -72 -48 -86 -43 -24 7 -25 2 48 309 244
1025 565 1799 1050 2531 585 884 1398 1681 2567 2518 98 70 180 126 181 124
30 -36 166 -228 243 -343 613 -920 982 -2002 1093 -3205 30 -334 39 -824 20
-1160 -15 -256 -59 -683 -73 -697 -3 -2 -25 1 -51 7 -208 46 -576 59 -771 26
-699 -117 -1196 -554 -1390 -1221 -60 -207 -84 -532 -56 -746 84 -638 440
-1272 941 -1676 386 -311 814 -496 1310 -564 141 -20 507 -17 650 4 587 88
1089 342 1491 753 210 216 349 414 484 689 125 254 200 490 247 776 30 182 32
593 4 769 -131 843 -509 1397 -1082 1589 -143 48 -271 64 -454 58 -211 -8
-369 -45 -558 -132 -161 -75 -379 -245 -467 -364 -31 -41 -41 -47 -62 -33 -10
6 -10 23 -3 67 15 93 48 412 62 600 26 364 14 971 -28 1385 -129 1266 -569
2454 -1263 3409 -45 62 -80 115 -78 117 2 2 48 9 103 15 187 21 442 -3 680
-66 409 -107 778 -288 1554 -762 162 -99 356 -216 430 -260 478 -284 830 -438
1165 -511 106 -23 143 -26 320 -27 161 0 215 4 280 19 436 102 777 374 1108
882 152 234 257 434 256 486 0 28 -11 42 -70 93 -588 502 -1178 899 -1789
1205 -564 283 -1083 452 -1582 515 -145 19 -517 27 -638 15z"/>
</g>
</svg>
