<?xml version="1.0" standalone="no"?>
<!DOCTYPE svg PUBLIC "-//W3C//DTD SVG 20010904//EN"
 "http://www.w3.org/TR/2001/REC-SVG-20010904/DTD/svg10.dtd">
<svg version="1.0" xmlns="http://www.w3.org/2000/svg"
 width="739.000000pt" height="1280.000000pt" viewBox="0 0 739.000000 1280.000000"
 preserveAspectRatio="xMidYMid meet">
<metadata>
Created by potrace 1.15, written by Peter Selinger 2001-2017
</metadata>
<g transform="translate(0.000000,1280.000000) scale(0.100000,-0.100000)"
fill="#75118E" stroke="none">
<path d="M2220 12663 c-37 -84 -87 -226 -106 -300 l-18 -73 -119 0 c-117 0
-301 -16 -324 -29 -15 -8 41 -144 120 -295 l58 -109 -79 -81 c-44 -45 -112
-121 -152 -171 l-71 -90 53 -24 c76 -34 254 -96 316 -111 l52 -12 0 -106 c0
-97 11 -237 25 -319 l6 -32 52 20 c277 108 492 258 549 384 32 70 32 224 0
305 -12 30 -22 56 -22 58 0 7 108 -54 186 -107 92 -61 204 -167 250 -234 105
-155 116 -308 38 -511 -90 -233 -230 -378 -382 -393 -26 -3 -52 -11 -58 -19
-9 -11 -26 -11 -105 2 -151 25 -487 29 -659 10 -179 -21 -391 -63 -575 -114
-77 -21 -141 -38 -143 -37 -1 1 6 22 17 46 52 118 52 262 1 366 -60 122 -241
254 -518 379 -89 40 -97 42 -104 25 -13 -36 -38 -277 -38 -368 l0 -91 -53 -12
c-135 -31 -407 -124 -407 -140 0 -14 150 -204 226 -287 l75 -83 -52 -86 c-74
-123 -171 -337 -156 -345 20 -11 227 -38 349 -45 l116 -7 16 -66 c22 -87 83
-273 112 -339 16 -37 27 -51 36 -46 40 24 186 140 265 211 l92 83 53 -33 c123
-78 363 -195 375 -183 11 11 34 202 40 331 7 155 -6 275 -38 361 -36 97 -134
183 -256 225 -32 12 -59 22 -61 24 -5 5 101 34 238 66 244 56 499 89 686 89
314 0 799 -102 1118 -236 l86 -36 -44 -56 c-70 -92 -150 -220 -204 -327 l-50
-101 -87 -53 c-104 -63 -205 -160 -264 -253 l-43 -67 -33 13 c-132 56 -382 61
-528 12 -145 -49 -243 -112 -347 -223 -144 -154 -214 -332 -213 -543 0 -146
16 -214 89 -385 3 -6 -34 -11 -98 -12 -264 -4 -506 -135 -657 -356 -155 -228
-178 -539 -56 -794 46 -99 87 -156 168 -236 l69 -68 -31 -34 c-291 -332 -270
-828 48 -1127 38 -36 93 -80 123 -98 l54 -32 0 -147 c-1 -122 3 -159 22 -224
21 -73 83 -209 115 -251 13 -18 12 -25 -4 -63 -40 -94 -53 -165 -53 -298 -1
-140 9 -195 55 -308 61 -150 165 -279 297 -368 l76 -51 -3 -127 c-3 -142 16
-247 64 -354 77 -174 222 -324 390 -403 33 -16 61 -29 63 -30 2 -1 -2 -46 -7
-99 -28 -251 52 -478 234 -660 120 -120 229 -182 387 -221 l63 -16 16 -81 c33
-168 96 -284 224 -412 91 -91 179 -151 268 -183 44 -15 48 -19 42 -42 -4 -14
-9 -83 -12 -155 -6 -144 12 -248 60 -357 99 -223 304 -398 547 -464 90 -25
301 -25 389 -1 162 44 264 101 376 212 198 195 281 463 226 730 -23 112 -56
193 -115 284 -25 40 -46 75 -46 79 0 5 16 24 36 43 51 48 126 165 163 252 28
69 61 215 61 276 0 23 11 31 98 73 165 79 293 203 371 361 61 124 83 219 84
362 0 130 -20 228 -68 333 -14 30 -25 58 -25 62 0 4 19 20 42 35 109 72 212
196 272 327 47 101 66 176 72 293 13 229 -69 446 -232 612 l-62 63 44 19 c108
48 237 155 308 255 101 142 146 269 153 437 10 221 -57 420 -193 572 -19 20
-34 40 -34 45 0 4 28 23 62 42 69 39 189 151 236 221 311 459 102 1071 -424
1239 l-70 23 -1 126 c0 96 -6 145 -22 206 -62 233 -213 420 -422 526 -123 62
-213 83 -356 83 l-122 1 -6 55 c-18 181 -83 351 -179 472 -103 129 -295 248
-458 283 l-77 17 -17 51 c-87 265 -303 469 -570 537 -94 24 -214 33 -291 22
-35 -5 -63 -5 -63 0 0 4 25 50 56 101 171 287 395 497 681 640 155 78 543 224
713 270 200 53 257 62 425 61 145 0 169 -3 250 -28 192 -58 342 -147 686 -407
294 -223 447 -312 647 -379 138 -46 231 -61 372 -61 131 0 240 20 314 58 l36
18 -35 57 -35 56 -67 -26 c-62 -24 -81 -26 -218 -26 -132 0 -162 3 -246 26
-216 60 -376 148 -673 373 -392 296 -550 387 -771 448 -69 18 -106 21 -265 22
-155 0 -202 -4 -291 -23 -209 -45 -470 -133 -780 -264 -207 -87 -377 -195
-529 -337 l-84 -77 -76 32 c-123 51 -325 119 -464 155 l-129 33 39 17 c57 24
141 90 191 151 56 67 146 249 174 353 63 226 -1 427 -192 611 -73 70 -224 177
-287 203 -45 19 -40 28 17 33 103 10 248 104 292 190 40 78 53 164 53 343 -1
145 -15 319 -28 333 -8 7 -203 -79 -300 -134 l-99 -55 -76 74 c-81 80 -247
217 -261 217 -5 0 -18 -21 -30 -47z"/>
</g>
</svg>
