<?xml version="1.0" standalone="no"?>
<!DOCTYPE svg PUBLIC "-//W3C//DTD SVG 20010904//EN"
 "http://www.w3.org/TR/2001/REC-SVG-20010904/DTD/svg10.dtd">
<svg version="1.0" xmlns="http://www.w3.org/2000/svg"
 width="697.000000pt" height="1280.000000pt" viewBox="0 0 697.000000 1280.000000"
 preserveAspectRatio="xMidYMid meet">
<metadata>
Created by potrace 1.15, written by Peter Selinger 2001-2017
</metadata>
<g transform="translate(0.000000,1280.000000) scale(0.100000,-0.100000)"
fill="#81BE80" stroke="none">
<path d="M6025 12788 c-105 -28 -388 -391 -491 -627 -64 -148 -85 -248 -91
-428 l-6 -163 -46 0 c-48 0 -236 -21 -356 -39 -273 -43 -547 -123 -761 -225
-111 -53 -117 -55 -165 -46 -33 6 -67 6 -99 -1 -44 -9 -55 -18 -103 -77 -29
-37 -79 -103 -109 -147 -71 -101 -92 -119 -151 -134 -58 -14 -116 -49 -148
-89 -15 -19 -70 -51 -151 -90 -71 -33 -128 -63 -128 -67 0 -3 14 2 31 11 96
49 220 102 216 91 -36 -83 -184 -394 -241 -507 -85 -167 -156 -328 -231 -521
-31 -80 -118 -260 -212 -440 -89 -167 -277 -533 -419 -814 -193 -382 -275
-533 -324 -600 -117 -159 -247 -379 -374 -633 -65 -130 -216 -466 -216 -481 0
-6 -53 -54 -117 -107 -65 -54 -125 -104 -133 -112 -17 -17 67 41 152 105 31
24 59 43 62 43 3 0 -4 -21 -15 -47 -11 -27 -44 -108 -72 -182 -51 -134 -51
-134 -252 -405 -421 -568 -574 -803 -725 -1111 -260 -532 -350 -975 -350
-1725 0 -985 173 -1550 564 -1844 213 -160 425 -234 1071 -371 559 -119 854
-202 1145 -325 41 -17 107 -42 147 -55 40 -13 130 -58 200 -100 166 -99 360
-197 476 -241 50 -20 146 -57 213 -84 239 -97 469 -147 729 -160 112 -5 174
-12 205 -25 64 -24 132 -16 211 25 35 18 120 48 189 65 575 150 1014 454 1305
904 65 100 176 334 219 461 51 152 91 313 120 490 14 85 39 207 55 270 143
564 159 1388 41 2108 -49 294 -93 475 -275 1107 -178 621 -213 769 -244 1050
-85 748 -79 1302 19 1772 29 140 102 406 198 724 148 488 186 671 186 899 0
211 -24 300 -164 610 -26 58 -53 123 -60 145 -21 68 -87 187 -140 252 -116
143 -288 244 -517 303 -30 7 -43 16 -43 28 0 10 14 73 30 141 82 336 217 532
577 839 79 67 113 133 114 218 2 134 -86 241 -219 267 -19 4 -48 18 -64 32
-75 63 -176 87 -263 63z m-3909 -5679 c-142 -347 -327 -729 -486 -1004 -96
-166 -522 -859 -614 -1000 -91 -139 -188 -271 -181 -246 12 39 167 396 251
576 88 191 278 569 361 720 54 98 723 1118 729 1112 2 -2 -25 -73 -60 -158z
m-1187 -1841 c-21 -73 -57 -205 -80 -293 -23 -88 -50 -176 -60 -195 l-20 -35
23 26 c13 14 40 45 61 70 22 24 32 32 24 18 -162 -277 -339 -670 -457 -1014
l-62 -180 7 105 c15 257 56 520 106 672 38 118 213 470 369 746 67 116 122
212 124 212 1 0 -15 -60 -35 -132z"/>
</g>
</svg>
