<?xml version="1.0" standalone="no"?>
<!DOCTYPE svg PUBLIC "-//W3C//DTD SVG 20010904//EN"
 "http://www.w3.org/TR/2001/REC-SVG-20010904/DTD/svg10.dtd">
<svg version="1.0" xmlns="http://www.w3.org/2000/svg"
 width="532.000000pt" height="1280.000000pt" viewBox="0 0 532.000000 1280.000000"
 preserveAspectRatio="xMidYMid meet">
<metadata>
Created by potrace 1.15, written by Peter Selinger 2001-2017
</metadata>
<g transform="translate(0.000000,1280.000000) scale(0.100000,-0.100000)"
fill="#BBDF29" stroke="none">
<path d="M2546 12775 c-3 -8 -12 -15 -19 -15 -7 0 -19 -10 -25 -22 -26 -56
-84 -268 -116 -432 -20 -99 -38 -181 -41 -184 -2 -3 -6 1 -9 9 -35 115 -131
328 -186 411 -29 44 -122 112 -143 105 -6 -2 8 -21 30 -43 56 -54 63 -94 70
-375 l6 -237 -44 -12 c-24 -7 -52 -16 -62 -22 -11 -5 -20 -8 -22 -6 -1 2 -35
68 -75 148 -77 154 -134 247 -210 345 -26 33 -66 92 -88 130 -23 39 -46 77
-51 85 -7 10 -10 -15 -10 -80 -1 -68 9 -144 34 -275 19 -99 37 -205 39 -235 3
-30 14 -98 26 -150 12 -52 25 -120 30 -150 20 -122 80 -420 133 -660 29 -130
49 -234 72 -365 9 -49 23 -121 30 -160 20 -99 25 -155 15 -155 -5 0 -13 12
-16 28 -21 83 -140 363 -173 407 -5 6 -30 51 -56 100 -26 50 -74 135 -105 190
-32 55 -82 150 -112 210 -64 128 -142 268 -209 375 -26 41 -64 102 -85 135
-105 169 -195 299 -265 382 -42 50 -79 98 -82 105 -4 10 -10 8 -21 -6 -14 -17
-14 -22 -1 -36 8 -9 46 -103 84 -210 38 -107 86 -233 106 -280 20 -47 52 -121
70 -165 73 -175 87 -207 175 -405 151 -335 210 -474 207 -483 -1 -5 -40 40
-85 99 -45 60 -96 126 -114 146 -28 34 -30 41 -20 63 13 29 16 65 5 65 -4 0
-17 -10 -31 -22 l-23 -23 -205 208 c-112 114 -216 225 -230 247 -15 22 -31 40
-37 40 -13 0 -2 -49 22 -103 11 -24 29 -66 40 -93 21 -55 86 -190 330 -688 89
-180 161 -330 161 -332 0 -2 18 -41 41 -86 44 -92 109 -236 109 -244 0 -4 -26
16 -58 44 -31 27 -88 69 -127 92 -105 64 -260 180 -337 253 -10 9 -22 17 -27
17 -5 0 -14 7 -21 15 -13 16 -40 21 -40 7 0 -10 174 -306 234 -398 25 -39 46
-78 46 -87 0 -9 5 -19 12 -23 7 -5 8 -3 3 6 -5 8 -4 11 2 7 19 -12 104 -167
227 -417 69 -140 177 -354 240 -475 101 -192 116 -226 116 -270 1 -27 5 -70
11 -95 22 -99 22 -101 5 -94 -11 4 -16 19 -16 53 0 50 -34 125 -106 236 -71
110 -103 149 -249 305 -44 47 -109 119 -144 160 -188 219 -292 317 -475 443
-112 79 -217 161 -280 221 -28 25 -52 46 -54 46 -2 0 -12 10 -23 23 -38 44 -9
-15 37 -75 23 -31 50 -71 60 -90 9 -18 41 -67 70 -108 97 -137 232 -324 284
-395 51 -69 165 -229 238 -333 68 -98 93 -144 87 -162 -12 -39 -36 -31 -115
37 -183 158 -265 217 -379 271 -86 41 -103 37 -112 -27 -6 -44 3 -60 25 -42 9
8 28 -9 76 -67 36 -42 94 -113 131 -157 176 -209 229 -274 229 -279 0 -3 -26
8 -57 23 -32 16 -83 41 -114 54 -31 14 -73 40 -92 57 -20 17 -38 27 -41 22 -7
-12 10 -34 139 -183 55 -63 140 -162 190 -220 49 -57 128 -147 175 -199 219
-244 290 -331 335 -410 68 -121 61 -122 -81 -16 -170 127 -305 231 -368 284
-119 101 -229 157 -328 169 -42 5 -50 11 -75 47 -15 22 -39 55 -54 71 -15 17
-44 68 -64 115 -74 168 -85 190 -95 190 -14 0 -13 -20 5 -70 8 -23 15 -56 15
-72 0 -20 15 -49 44 -87 26 -33 55 -89 72 -136 15 -43 45 -104 66 -136 39 -58
148 -167 243 -242 85 -67 117 -98 110 -105 -3 -4 -14 4 -24 17 -13 17 -20 20
-26 12 -5 -9 -12 -8 -25 4 -10 9 -24 15 -32 14 -28 -4 -79 15 -89 33 -9 16
-13 17 -26 6 -13 -10 -19 -8 -36 12 -13 16 -21 21 -24 13 -4 -10 -9 -10 -26
-1 -12 7 -26 11 -31 10 -4 -2 -14 3 -22 9 -11 9 -16 6 -25 -19 -8 -24 -26 -38
-84 -67 -60 -30 -75 -41 -80 -65 -3 -16 -13 -34 -21 -41 -8 -6 -14 -16 -14
-21 0 -5 -9 -21 -21 -37 -23 -31 -23 -82 0 -89 8 -3 11 0 7 7 -12 19 14 81 42
99 15 9 53 39 85 66 l58 50 47 -50 c26 -27 70 -65 99 -84 32 -21 60 -50 75
-79 14 -25 31 -47 39 -50 12 -4 12 -2 1 12 -16 19 -6 40 17 34 9 -2 75 -40
146 -85 152 -94 310 -222 364 -296 51 -68 76 -114 68 -122 -3 -3 -49 16 -101
44 -236 127 -408 180 -606 188 -126 6 -153 -2 -179 -47 -17 -31 -8 -74 19 -89
15 -8 32 -7 68 6 47 17 49 17 142 -10 52 -15 99 -31 104 -36 14 -14 -60 -23
-130 -16 -78 8 -193 -9 -215 -32 -10 -9 -20 -28 -24 -42 -6 -23 -4 -22 20 8
19 22 35 32 55 32 39 0 302 -88 428 -144 133 -58 214 -108 252 -154 17 -20 69
-66 117 -102 73 -54 100 -82 160 -170 40 -57 73 -108 73 -112 0 -4 -12 -3 -27
3 -40 16 -150 30 -177 23 -16 -4 -27 -19 -39 -57 -30 -94 -29 -100 28 -118 28
-9 51 -22 52 -30 5 -31 -34 -58 -108 -75 -87 -19 -135 -48 -143 -85 -4 -20
-20 -36 -59 -58 -65 -37 -67 -37 -68 -8 -1 18 -4 16 -17 -13 -9 -20 -27 -44
-40 -54 l-24 -19 7 34 c5 28 -5 17 -55 -58 -38 -58 -81 -106 -114 -132 -71
-55 -121 -118 -107 -135 8 -9 3 -20 -18 -40 -16 -16 -35 -42 -42 -60 -7 -17
-21 -44 -32 -60 -19 -26 -21 -27 -33 -11 -7 9 -10 24 -7 33 4 9 2 13 -4 9 -18
-11 -83 -150 -83 -175 0 -13 -13 -43 -30 -67 -16 -24 -30 -51 -30 -59 0 -9 -5
-16 -10 -16 -6 0 -8 -15 -4 -38 4 -28 1 -49 -12 -73 -9 -19 -19 -47 -21 -64
-6 -61 -14 -95 -23 -95 -6 0 -10 -5 -10 -12 0 -6 -10 -25 -23 -42 -52 -71 -69
-123 -68 -204 6 -344 3 -407 -17 -472 -24 -80 -54 -143 -67 -142 -5 0 -18 24
-27 54 l-17 53 0 -58 c-1 -54 4 -85 45 -258 8 -37 17 -89 19 -117 4 -52 14
-132 22 -167 6 -26 7 -36 4 -60 -1 -15 -5 -12 -17 15 -8 19 -17 47 -19 61 -2
15 -10 40 -18 55 -14 26 -16 27 -23 10 -4 -11 -2 -38 4 -60 6 -23 14 -66 18
-96 4 -30 15 -74 25 -97 13 -31 19 -74 21 -154 2 -73 7 -114 15 -121 15 -12
19 -243 4 -252 -15 -10 -20 -74 -23 -280 -2 -153 0 -200 10 -203 6 -3 12 -14
12 -26 0 -28 39 -148 39 -124 1 31 18 9 25 -32 3 -22 15 -61 27 -88 24 -56 24
-54 15 -160 -5 -69 -4 -87 10 -108 14 -22 15 -30 5 -49 -12 -21 -9 -27 22 -57
41 -41 57 -69 57 -103 0 -13 29 -80 65 -148 69 -132 123 -241 135 -273 4 -11
28 -45 53 -75 34 -42 46 -67 52 -105 9 -65 39 -121 73 -139 37 -19 93 -106
115 -178 14 -45 27 -65 60 -91 71 -56 118 -83 207 -116 74 -28 103 -47 210
-138 69 -57 139 -110 155 -117 17 -7 50 -23 75 -34 25 -12 76 -33 115 -47 38
-14 105 -47 148 -72 l79 -46 96 12 c114 15 255 0 407 -42 50 -13 150 -32 222
-41 131 -16 134 -16 219 5 55 14 103 34 133 54 25 18 76 52 114 75 l67 42 153
8 c138 7 164 12 282 49 72 22 149 41 171 41 61 0 73 22 27 44 -34 16 -36 19
-18 29 11 5 75 58 143 116 68 58 155 129 195 157 57 41 75 61 93 102 17 38 32
56 61 70 47 25 147 49 235 57 47 5 68 11 73 22 8 22 -3 29 -52 37 -29 4 -43 2
-46 -7 -4 -8 -6 -8 -6 0 -1 6 -10 9 -21 6 -11 -3 -20 -1 -20 5 0 6 -7 12 -15
14 -10 2 9 35 65 108 44 58 89 115 100 126 11 12 20 26 20 31 0 6 23 29 51 53
55 46 112 104 155 158 18 23 33 32 46 29 10 -3 18 0 18 8 0 28 -40 23 -84 -11
-25 -19 -52 -34 -61 -34 -27 0 -29 30 -3 58 14 15 40 49 58 75 28 42 31 55 26
89 -8 46 32 184 64 226 11 13 20 39 20 56 1 21 13 45 39 74 35 40 45 45 112
58 40 7 80 21 89 30 14 15 10 15 -50 9 -36 -4 -80 -12 -98 -18 -44 -15 -68 0
-64 39 1 16 4 60 7 97 2 37 9 85 15 105 13 50 13 180 -2 259 -9 48 -9 66 0 72
6 3 11 15 11 26 0 38 20 300 27 353 4 28 10 52 15 52 5 0 9 7 9 15 0 8 20 42
44 77 24 35 46 77 50 93 l6 30 -32 -39 c-18 -22 -41 -49 -50 -60 -29 -36 -34
6 -8 69 l22 55 -26 84 c-14 46 -27 101 -27 122 -2 31 -3 33 -6 12 -8 -53 -20
-28 -26 53 -3 51 -11 87 -20 97 -18 20 -17 78 2 139 11 33 12 54 3 97 -11 53
-7 121 8 141 12 15 15 152 6 215 -4 30 -16 64 -26 75 -16 18 -46 77 -79 158
-6 15 -11 74 -11 131 0 100 -12 164 -34 178 -7 4 -12 52 -14 115 -5 186 -16
285 -39 333 -11 25 -26 69 -33 98 -6 28 -14 52 -17 52 -8 0 8 -132 23 -191 8
-31 14 -72 13 -90 -1 -37 -3 -34 -19 28 -8 31 -16 42 -33 45 -15 2 -23 11 -25
28 -2 14 -8 30 -12 35 -5 6 -11 28 -15 50 -10 54 -41 108 -74 128 -38 22 -81
107 -81 161 0 30 -5 46 -15 50 -8 3 -15 13 -15 22 0 9 -26 43 -57 74 -32 32
-76 76 -98 99 -22 23 -68 61 -102 84 -42 28 -66 52 -73 73 -22 65 -204 121
-403 125 -81 2 -110 9 -140 36 -14 11 -41 29 -60 38 -42 20 -54 43 -33 64 14
13 13 16 -7 26 -12 6 -23 17 -25 26 -3 16 195 219 214 219 24 0 37 -56 26
-115 -8 -47 -7 -58 6 -62 16 -7 42 21 42 46 0 9 14 34 30 55 35 47 37 64 9
100 -17 22 -28 26 -72 26 -29 -1 -76 -9 -104 -19 -51 -17 -53 -17 -53 1 0 10
4 18 9 18 5 0 23 13 40 29 33 31 41 61 15 61 -9 0 -14 6 -12 13 3 7 38 17 80
24 91 14 112 23 161 75 45 49 46 66 7 81 -17 7 -30 19 -30 28 0 23 81 83 91
67 11 -18 -12 -58 -35 -58 -15 0 -17 -3 -8 -12 19 -19 78 -13 103 11 13 12 26
21 31 21 15 0 29 42 23 70 -6 25 -12 30 -51 36 -24 3 -44 10 -44 15 0 9 46 30
182 85 98 39 105 38 135 -20 8 -17 27 -47 42 -66 34 -45 60 -127 68 -214 6
-69 6 -69 25 -47 36 46 12 267 -36 321 -13 14 -44 59 -70 101 -36 58 -62 87
-108 118 -57 40 -64 42 -156 47 -60 4 -117 1 -154 -6 -32 -7 -61 -10 -64 -7
-9 8 358 378 370 374 6 -2 14 -15 18 -28 59 -216 61 -242 22 -288 -29 -35 -26
-38 15 -16 56 28 84 137 58 221 -8 27 -18 70 -21 96 -3 26 -15 68 -27 94 -18
37 -32 51 -66 66 -51 22 -82 19 -161 -19 -35 -17 -56 -23 -63 -16 -6 6 -12 47
-15 93 -4 79 -3 82 17 77 20 -5 64 25 52 36 -20 20 78 108 133 119 14 3 18 11
16 30 -4 36 4 40 406 204 73 30 146 64 162 76 24 18 38 20 88 16 33 -3 81 -15
107 -27 l47 -21 -5 -47 c-3 -27 -10 -97 -16 -158 -5 -60 -15 -146 -20 -189 -6
-44 -8 -82 -5 -85 10 -10 23 24 29 79 11 97 44 255 55 258 5 2 10 12 10 23 0
10 5 19 11 19 16 0 5 54 -42 201 -39 122 -42 129 -102 189 -51 52 -213 170
-232 170 -4 0 -34 14 -68 31 -34 16 -92 39 -131 49 -38 11 -71 21 -73 23 -2 2
1 16 6 29 8 20 6 30 -9 46 -10 11 -17 22 -15 24 6 5 -125 -8 -157 -17 -15 -4
-36 -2 -50 6 -40 21 -275 69 -345 69 -47 0 -150 -24 -190 -45 -14 -8 -30 -12
-34 -9 -5 2 8 42 27 87 20 45 46 109 59 142 87 227 109 275 130 275 19 0 19
16 0 24 -20 7 -19 42 1 50 9 3 14 12 11 20 -3 8 -3 16 0 19 10 11 11 101 0
124 -8 19 -8 26 2 32 18 12 3 18 -47 20 -24 0 -47 3 -52 6 -8 5 19 75 135 345
37 85 69 167 72 181 3 15 15 31 28 37 23 11 23 12 9 42 l-16 31 94 92 c128
127 243 257 329 374 40 54 90 118 111 142 42 49 46 61 20 61 -61 0 -212 -82
-332 -180 -92 -75 -88 -66 79 192 197 303 235 364 249 401 8 20 21 37 29 37 7
0 13 10 13 23 0 14 21 47 54 83 67 74 75 96 42 114 -32 16 -155 8 -167 -11
-21 -33 -5 -44 55 -41 62 4 71 -11 13 -23 -117 -23 -152 -43 -245 -138 -50
-51 -116 -123 -149 -161 -32 -39 -75 -88 -96 -110 l-39 -41 6 32 c3 17 17 55
31 84 13 29 24 54 22 55 -1 2 -31 -15 -65 -36 -35 -22 -69 -40 -77 -40 -7 0
-17 -9 -20 -20 -3 -11 -15 -20 -25 -20 -11 0 -20 -10 -24 -25 -4 -16 -11 -22
-21 -19 -9 4 -15 0 -15 -7 0 -13 -115 -123 -149 -143 -17 -11 -10 12 31 109
24 55 325 663 367 742 5 10 19 38 30 63 12 25 36 60 54 78 50 48 135 54 243
16 17 -6 17 -5 4 8 -21 22 -142 49 -182 42 -65 -13 -158 -67 -211 -124 -99
-107 -210 -240 -265 -320 -30 -44 -61 -80 -68 -80 -17 0 -6 31 46 125 21 39
50 99 65 135 15 36 36 73 46 83 22 21 25 47 5 47 -8 0 -56 -21 -107 -47 -100
-51 -228 -161 -271 -232 -12 -20 -39 -56 -59 -81 -62 -75 -269 -418 -317 -524
-25 -54 -59 -122 -76 -149 l-31 -51 -6 65 c-4 35 -7 107 -8 160 0 52 -6 142
-11 200 -6 57 -14 167 -19 245 -7 113 -13 149 -31 183 -22 45 -37 51 -22 10 9
-24 -1 -74 -19 -94 -5 -5 -9 -19 -9 -31 0 -12 -6 -37 -14 -55 -7 -19 -17 -43
-21 -54 -7 -17 -9 -15 -15 15 -4 19 -17 78 -29 130 -39 169 -61 272 -97 445
-66 326 -76 355 -133 409 -17 17 -31 35 -31 40 0 6 -7 19 -14 29 -12 15 -14
16 -20 2z m-1331 -3935 c29 -46 30 -50 11 -50 -8 0 -28 16 -46 36 -25 29 -29
39 -18 45 21 14 26 11 53 -31z m3130 -27 c42 -10 109 -16 170 -16 l100 1 48
-40 c26 -22 75 -58 107 -79 76 -49 166 -120 162 -127 -4 -9 -65 -3 -147 14
-96 19 -208 18 -323 -5 -53 -10 -126 -24 -161 -30 -56 -9 -108 -31 -246 -105
-16 -9 -35 -16 -41 -16 -16 0 -35 47 -41 102 -7 54 -12 47 163 231 77 80 97
97 116 92 13 -3 55 -12 93 -22z m-481 -420 c13 -79 9 -89 -39 -117 -24 -15
-85 -65 -135 -112 -49 -48 -90 -82 -90 -77 0 32 64 144 105 183 26 25 67 71
92 103 24 31 48 57 52 57 5 0 11 -17 15 -37z m-2789 -580 c42 -38 40 -40 -12
-8 -18 11 -35 26 -38 33 -8 21 8 13 50 -25z m2835 -7 c-11 -34 -57 -82 -68
-71 -3 2 12 29 33 60 21 30 40 53 43 51 2 -3 -1 -21 -8 -40z m-2410 -1401 c29
-30 51 -58 46 -62 -4 -4 -15 -2 -24 5 -9 7 -32 22 -50 33 -35 23 -56 54 -47
69 10 17 19 12 75 -45z m130 -116 c0 -4 -18 -2 -40 3 -35 9 -38 13 -29 29 9
18 11 18 39 -3 17 -12 30 -25 30 -29z m1930 -74 c0 -9 -6 -12 -15 -9 -8 4 -12
10 -9 15 8 14 24 10 24 -6z m-3336 -2190 c3 -8 1 -15 -4 -15 -6 0 -10 7 -10
15 0 8 2 15 4 15 2 0 6 -7 10 -15z m4857 -868 c-10 -9 -11 -8 -5 6 3 10 9 15
12 12 3 -3 0 -11 -7 -18z m-4778 -803 c10 -10 9 -24 -2 -24 -12 0 -18 20 -25
80 l-5 45 12 -47 c7 -25 15 -50 20 -54z"/>
<path d="M3901 9886 c-9 -11 -9 -16 0 -22 7 -4 9 -3 5 4 -3 6 2 15 11 21 10 6
13 11 7 11 -6 0 -17 -6 -23 -14z"/>
</g>
</svg>
